<svg width="25" height="40" viewBox="0 0 25 40" fill="none" xmlns="http://www.w3.org/2000/svg">
<path d="M17.5614 16C18.9421 16 20.0614 14.8807 20.0614 13.5C20.0614 12.1193 18.9421 11 17.5614 11C16.1807 11 15.0614 12.1193 15.0614 13.5C15.0614 14.8807 16.1807 16 17.5614 16Z" stroke="white" stroke-width="2" stroke-linejoin="round"/>
<path d="M6.5614 22.5C7.9421 22.5 9.0614 21.3807 9.0614 20C9.0614 18.6193 7.9421 17.5 6.5614 17.5C5.1807 17.5 4.0614 18.6193 4.0614 20C4.0614 21.3807 5.1807 22.5 6.5614 22.5Z" stroke="white" stroke-width="2" stroke-linejoin="round"/>
<path d="M15.0616 14.7872L8.73108 18.6227" stroke="white" stroke-width="2" stroke-linecap="round" stroke-linejoin="round"/>
<path d="M8.73059 21.2819L15.4008 25.2234" stroke="white" stroke-width="2" stroke-linecap="round" stroke-linejoin="round"/>
<path d="M17.5614 24C18.9421 24 20.0614 25.1193 20.0614 26.5C20.0614 27.8807 18.9421 29 17.5614 29C16.1807 29 15.0614 27.8807 15.0614 26.5C15.0614 25.1193 16.1807 24 17.5614 24Z" stroke="white" stroke-width="2" stroke-linejoin="round"/>
</svg>
